HIERARCHY
ROOT Hips
{
  OFFSET 53.4138 85.051 -6.21599
  CHANNELS 6 Xposition Yposition Zposition Zrotation Xrotation Yrotation
  JOINT spine
  {
    OFFSET 0 6.3926 0.367606
    CHANNELS 3 Zrotation Xrotation Yrotation
    JOINT spine1
    {
      OFFSET 0 9.17611 0
      CHANNELS 3 Zrotation Xrotation Yrotation
      JOINT spine2
      {
        OFFSET 0 8.79238 0
        CHANNELS 3 Zrotation Xrotation Yrotation
        JOINT Neck
        {
          OFFSET 0 22.5737 1.07624
          CHANNELS 3 Zrotation Xrotation Yrotation
          JOINT Head
          {
            OFFSET 0 6.82011 0
            CHANNELS 3 Zrotation Xrotation Yrotation
            End Site
            {
              OFFSET 0 16.5085 -5.44427
            }
          }
        }
        JOINT RightShoulder
        {
          OFFSET -3.70221 9.49509 -0.515508
          CHANNELS 3 Zrotation Xrotation Yrotation
          JOINT RightArm
          {
            OFFSET 0 12.4537 0
            CHANNELS 3 Zrotation Xrotation Yrotation
            JOINT RightArmRoll
            {
              OFFSET 0 6.28686 0
              CHANNELS 3 Zrotation Xrotation Yrotation
              JOINT RightForeArm
              {
                OFFSET 0 18.3114 0
                CHANNELS 3 Zrotation Xrotation Yrotation
                JOINT RightForeArmRoll
                {
                  OFFSET 0 7.05482 0
                  CHANNELS 3 Zrotation Xrotation Yrotation
                  JOINT RightHand
                  {
                    OFFSET 0 14.1575 0
                    CHANNELS 3 Zrotation Xrotation Yrotation
                    End Site
                    {
                      OFFSET 0 0 0
                    }
                  }
                }
              }
            }
          }
        }
        JOINT LeftShoulder
        {
          OFFSET 3.70221 9.49509 -0.515508
          CHANNELS 3 Zrotation Xrotation Yrotation
          JOINT LeftArm
          {
            OFFSET 0 12.4537 0
            CHANNELS 3 Zrotation Xrotation Yrotation
            JOINT LeftArmRoll
            {
              OFFSET 0 6.28686 0
              CHANNELS 3 Zrotation Xrotation Yrotation
              JOINT LeftForeArm
              {
                OFFSET 0 18.3114 0
                CHANNELS 3 Zrotation Xrotation Yrotation
                JOINT LeftForeArmRoll
                {
                  OFFSET 0 7.05482 0
                  CHANNELS 3 Zrotation Xrotation Yrotation
                  JOINT LeftHand
                  {
                    OFFSET 0 14.1575 0
                    CHANNELS 3 Zrotation Xrotation Yrotation
                    End Site
                    {
                      OFFSET 0 0 0
                    }
                  }
                }
              }
            }
          }
        }
      }
    }
  }
  JOINT RightUpLeg
  {
    OFFSET -5.66615 -1.03903 -0.87161
    CHANNELS 3 Zrotation Xrotation Yrotation
    JOINT RightUpLegRoll
    {
      OFFSET 0 16.6005 0
      CHANNELS 3 Zrotation Xrotation Yrotation
      JOINT RightLeg
      {
        OFFSET 0 -20.5572 0
        CHANNELS 3 Zrotation Xrotation Yrotation
        JOINT RightLegRoll
        {
          OFFSET 0 20.6244 0
          CHANNELS 3 Zrotation Xrotation Yrotation
          JOINT RightFoot
          {
            OFFSET 0 17.1664 0
            CHANNELS 3 Zrotation Xrotation Yrotation
            JOINT RightToeBase
            {
              OFFSET 0 14.3502 0
              CHANNELS 3 Zrotation Xrotation Yrotation
              End Site
              {
                OFFSET 0.00608252 6.9497 -0.801061
              }
            }
          }
        }
      }
    }
  }
  JOINT LeftUpLeg
  {
    OFFSET 5.66615 -1.03903 -0.87161
    CHANNELS 3 Zrotation Xrotation Yrotation
    JOINT LeftUpLegRoll
    {
      OFFSET 0 16.6006 0
      CHANNELS 3 Zrotation Xrotation Yrotation
      JOINT LeftLeg
      {
        OFFSET 0 20.5571 0
        CHANNELS 3 Zrotation Xrotation Yrotation
        JOINT LeftLegRoll
        {
          OFFSET 0 20.8151 0
          CHANNELS 3 Zrotation Xrotation Yrotation
          JOINT LeftFoot
          {
            OFFSET 0 16.9757 0
            CHANNELS 3 Zrotation Xrotation Yrotation
            JOINT LeftToeBase
            {
              OFFSET 0 14.3502 0
              CHANNELS 3 Zrotation Xrotation Yrotation
              End Site
              {
                OFFSET -0.0272592 6.94971 -0.801061
              }
            }
          }
        }
      }
    }
  }
}
MOTION
Frames: 9
Frame Time: 0.00208333
57.7779 108.567 4.06942 1.82524 12.3251 3.10278 -0.454942 -1.68441 -0.0658172 -0.910511 0.634161 -0.0859465 -0.909959 2.27912 -0.0707361 0.350264 21.0936 0.384478 1.27652 -7.49614 0.714808 53.8324 -9.45424 -5.82805 105.917 -0.267912 19.3448 2.14188e-006 -1.90076e-006 -7.98973e-006 9.52694 0.0718384 -1.59149 4.39665e-006 1.27149e-006 -3.12466 8.02901 -4.95142 0.697689 -50.5495 -10.7202 6.73845 -108.944 -1.63494 -27.3528 -7.09746e-007 1.83818e-007 5.46834e-006 6.53236 -0.0461618 1.08017 -3.31582e-006 2.75115e-006 3.1913 -8.02886 -4.95145 -0.697673 173.229 20.2052 0.849363 180 7.01614e-015 179.273 177.263 14.2597 179.665 4.23967e-007 -5.90834e-006 0.201725 -19.6971 69.5876 20.9362 8.13649 25.2327 -3.48773 179.612 14.6572 5.53259 4.54188e-006 -4.6773e-006 -0.686058 -0.815629 -7.21703 0.308844 1.24761e-006 -4.95997e-006 0.0399536 17.1997 66.2 -18.165 -8.13649 25.2327 3.48774 
57.8158 108.241 4.03432 1.83737 12.4073 3.07316 -0.456381 -1.69026 -0.0640731 -0.913351 0.622459 -0.0823514 -0.912841 2.26742 -0.067092 0.238607 21.0893 0.42603 1.36676 -7.59723 0.729195 53.6944 -9.47694 -5.84129 105.942 -0.444212 19.37 2.14188e-006 -1.90076e-006 -7.98973e-006 9.55475 0.0720812 -1.58704 4.39665e-006 1.27149e-006 -3.12423 8.02901 -4.95142 0.697689 -50.4661 -10.8539 6.83708 -108.919 -1.71843 -27.6442 -7.09746e-007 1.83818e-007 5.46834e-006 6.78575 -0.0479502 1.062 -3.31582e-006 2.75115e-006 3.19099 -8.02886 -4.95145 -0.697673 173.222 20.359 0.855325 180 7.01615e-015 179.275 177.24 14.276 179.669 4.23967e-007 -5.90834e-006 0.201708 -19.711 69.6028 20.9517 8.13649 25.2327 -3.48773 179.602 14.7717 5.5599 4.54188e-006 -4.6773e-006 -0.684054 -0.807968 -7.20633 0.309454 1.24761e-006 -4.95997e-006 0.0400715 17.2077 66.2129 -18.1741 -8.13649 25.2327 3.48774 
57.8023 107.89 4.04673 1.84901 12.4918 3.04079 -0.456591 -1.69631 -0.0622982 -0.913736 0.610335 -0.0788174 -0.913265 2.25529 -0.0635502 0.107748 21.0856 0.472658 1.46973 -7.7041 0.743791 53.5504 -9.49102 -5.84828 105.968 -0.620935 19.4013 2.14188e-006 -1.90076e-006 -7.98973e-006 9.57749 0.0723132 -1.5822 4.39665e-006 1.27149e-006 -3.12376 8.02901 -4.95142 0.697689 -50.396 -10.9865 6.93503 -108.878 -1.82195 -27.8954 -7.09746e-007 1.83818e-007 5.46834e-006 6.98177 -0.0493201 1.04746 -3.31582e-006 2.75115e-006 3.19043 -8.02886 -4.95145 -0.697673 173.214 20.5183 0.863088 180 7.01615e-015 179.278 177.213 14.2969 179.674 4.23967e-007 -5.90834e-006 0.201626 -19.7224 69.6156 20.9649 8.13649 25.2327 -3.48773 179.593 14.8899 5.58561 4.54188e-006 -4.6773e-006 -0.681988 -0.80185 -7.19922 0.309848 1.24761e-006 -4.95997e-006 0.0402502 17.2128 66.2216 -18.1803 -8.13649 25.2327 3.48774 
57.8143 107.551 4.0279 1.86054 12.579 3.00545 -0.455507 -1.70257 -0.0604862 -0.911533 0.597808 -0.0753383 -0.911099 2.24277 -0.0601065 -0.0440578 21.0825 0.524649 1.58655 -7.8173 0.758445 53.4001 -9.49558 -5.84834 105.997 -0.798215 19.4396 2.14188e-006 -1.90076e-006 -7.98973e-006 9.59466 0.0725322 -1.57698 4.39665e-006 1.27149e-006 -3.12324 8.02901 -4.95142 0.697689 -50.3414 -11.1177 7.03191 -108.82 -1.94906 -28.1005 -7.09746e-007 1.83818e-007 5.46834e-006 7.1115 -0.0502082 1.03708 -3.31582e-006 2.75115e-006 3.18961 -8.02886 -4.95145 -0.697673 173.206 20.6837 0.873318 180 7.01616e-015 179.281 177.184 14.3233 179.679 4.23967e-007 -5.90834e-006 0.201484 -19.7313 69.6259 20.9757 8.13649 25.2327 -3.48773 179.583 15.012 5.60989 4.54188e-006 -4.6773e-006 -0.679837 -0.797498 -7.19616 0.309988 1.24761e-006 -4.95997e-006 0.0404915 17.2146 66.2258 -18.1832 -8.13649 25.2327 3.48774 
57.8027 107.183 4.02904 1.87806 12.6724 2.96355 -0.453694 -1.71028 -0.059204 -0.907886 0.582382 -0.0729906 -0.907474 2.22734 -0.0578189 -0.235401 21.0902 0.589443 1.73056 -7.9449 0.775878 53.2402 -9.48237 -5.8352 106.028 -0.981042 19.4873 2.14188e-006 -1.90076e-006 -7.98973e-006 9.6053 0.0727618 -1.57094 4.39665e-006 1.27149e-006 -3.12263 8.02901 -4.95142 0.697689 -50.3117 -11.2526 7.13135 -108.736 -2.09883 -28.2636 -7.09746e-007 1.83818e-007 5.46834e-006 7.17733 -0.0506211 1.03089 -3.31582e-006 2.75115e-006 3.18851 -8.02886 -4.95145 -0.697673 173.189 20.861 0.890862 180 7.01616e-015 179.284 177.152 14.3568 179.684 4.23967e-007 -5.90834e-006 0.201261 -19.7397 69.6358 20.9861 8.13649 25.2327 -3.48773 179.567 15.1349 5.63848 4.54188e-006 -4.6773e-006 -0.677365 -0.794711 -7.18473 0.309613 1.24761e-006 -4.95997e-006 0.0411303 17.2116 66.2232 -18.1812 -8.13649 25.2327 3.48774 
57.8357 106.843 4.02923 1.90569 12.7744 2.91268 -0.45164 -1.72036 -0.0588744 -0.903784 0.5622 -0.0725714 -0.90337 2.20716 -0.0574681 -0.477961 21.1164 0.672187 1.91035 -8.09218 0.798268 53.068 -9.44639 -5.80504 106.063 -1.17289 19.5454 2.14188e-006 -1.90076e-006 -7.98973e-006 9.60928 0.0730215 -1.56378 4.39665e-006 1.27149e-006 -3.12193 8.02901 -4.95142 0.697689 -50.3113 -11.396 7.23642 -108.62 -2.26653 -28.3943 -7.09746e-007 1.83818e-007 5.46834e-006 7.19132 -0.0506365 1.02829 -3.31582e-006 2.75115e-006 3.18718 -8.02886 -4.95145 -0.697673 173.158 21.0538 0.918549 180 7.01617e-015 179.287 177.116 14.3979 179.69 4.23967e-007 -5.90834e-006 0.200941 -19.7491 69.6469 20.9979 8.13649 25.2327 -3.48773 179.542 15.2556 5.67542 4.54188e-006 -4.6773e-006 -0.674428 -0.793082 -7.15529 0.308573 1.24761e-006 -4.95997e-006 0.0424103 17.2031 66.2127 -18.1736 -8.13649 25.2327 3.48774 
57.8159 106.468 4.02642 1.9408 12.8833 2.85438 -0.449168 -1.73232 -0.0592754 -0.898869 0.538247 -0.0736546 -0.898433 2.18321 -0.0586338 -0.763114 21.1569 0.769728 2.1198 -8.2555 0.824648 52.8853 -9.3916 -5.76087 106.101 -1.37159 19.6122 2.14188e-006 -1.90076e-006 -7.98973e-006 9.60737 0.0733036 -1.55567 4.39665e-006 1.27149e-006 -3.12113 8.02901 -4.95142 0.697689 -50.3349 -11.5459 7.34597 -108.479 -2.45 -28.4954 -7.09746e-007 1.83818e-007 5.46834e-006 7.15906 -0.0502981 1.02887 -3.31582e-006 2.75115e-006 3.18563 -8.02886 -4.95145 -0.697673 173.118 21.2592 0.954004 180 7.01617e-015 179.29 177.077 14.4453 179.697 4.23967e-007 -5.90834e-006 0.200527 -19.7588 69.6586 21.0103 8.13649 25.2327 -3.48773 179.509 15.3751 5.7183 4.54188e-006 -4.6773e-006 -0.671141 -0.792528 -7.11249 0.307002 1.24761e-006 -4.95997e-006 0.044196 17.19 66.1956 -18.1613 -8.13649 25.2327 3.48774 
57.8657 106.112 4.02303 1.98074 12.9975 2.79024 -0.446102 -1.74568 -0.0601849 -0.89278 0.511505 -0.0758141 -0.892308 2.15647 -0.0608959 -1.08223 21.2076 0.87891 2.35281 -8.43125 0.85405 52.6932 -9.32195 -5.70569 106.144 -1.575 19.6862 2.14188e-006 -1.90076e-006 -7.98973e-006 9.60031 0.0736002 -1.54677 4.39665e-006 1.27149e-006 -3.12026 8.02901 -4.95142 0.697689 -50.3769 -11.7005 7.45885 -108.317 -2.64713 -28.5698 -7.09746e-007 1.83818e-007 5.46834e-006 7.08613 -0.0496499 1.03223 -3.31582e-006 2.75115e-006 3.18389 -8.02886 -4.95145 -0.697673 173.071 21.4745 0.994842 180 7.01617e-015 179.293 177.035 14.4975 179.703 4.23967e-007 -5.90834e-006 0.200025 -19.7682 69.6699 21.0226 8.13649 25.2327 -3.48773 179.472 15.4946 5.76472 4.54188e-006 -4.6773e-006 -0.667614 -0.792962 -7.06095 0.305032 1.24761e-006 -4.95997e-006 0.046352 17.1731 66.1732 -18.145 -8.13649 25.2327 3.48774 
57.8629 105.705 4.01158 2.02285 13.1154 2.72182 -0.442263 -1.75994 -0.0613807 -0.885157 0.482959 -0.0786241 -0.884641 2.12793 -0.0638343 -1.42665 21.2642 0.996565 2.60326 -8.61578 0.885503 52.4935 -9.24142 -5.64253 106.191 -1.78097 19.7657 2.14188e-006 -1.90076e-006 -7.98973e-006 9.58886 0.0739035 -1.53727 4.39665e-006 1.27149e-006 -3.11934 8.02901 -4.95142 0.697689 -50.4321 -11.858 7.5739 -108.141 -2.85577 -28.6203 -7.09746e-007 1.83818e-007 5.46834e-006 6.97812 -0.0487357 1.03798 -3.31582e-006 2.75115e-006 3.18199 -8.02886 -4.95145 -0.697673 173.022 21.6968 1.03866 180 7.01618e-015 179.296 176.991 14.5535 179.71 4.23967e-007 -5.90834e-006 0.19944 -19.7765 69.6802 21.0339 8.13649 25.2327 -3.48773 179.434 15.6151 5.81229 4.54188e-006 -4.6773e-006 -0.663962 -0.794302 -7.00532 0.302794 1.24761e-006 -4.95997e-006 0.048743 17.1533 66.1466 -18.1259 -8.13649 25.2327 3.48774 
